<svg width="48" height="79" viewBox="0 0 48 79" fill="none" xmlns="http://www.w3.org/2000/svg">
<path d="M24.001 77.1338C36.6523 77.1338 46.9082 66.8779 46.9082 54.2266C46.9082 41.5753 36.6523 31.3193 24.001 31.3193C11.3497 31.3193 1.09375 41.5753 1.09375 54.2266C1.09375 66.8779 11.3497 77.1338 24.001 77.1338Z" stroke="white" stroke-width="2" stroke-linecap="round" stroke-linejoin="round"/>
<path d="M7.63867 38.2242V18.2295C7.63867 13.8899 9.36255 9.72812 12.4311 6.6596C15.4996 3.59107 19.6614 1.86719 24.001 1.86719C28.3405 1.86719 32.5023 3.59107 35.5709 6.6596C38.6394 9.72812 40.3633 13.8899 40.3633 18.2295V38.2242" stroke="white" stroke-width="2" stroke-linecap="round" stroke-linejoin="round"/>
<path d="M24 54.2266V60.7715" stroke="white" stroke-width="2" stroke-linecap="round" stroke-linejoin="round"/>
<path d="M24.0005 55.8623C26.7115 55.8623 28.9092 53.6646 28.9092 50.9536C28.9092 48.2426 26.7115 46.0449 24.0005 46.0449C21.2895 46.0449 19.0918 48.2426 19.0918 50.9536C19.0918 53.6646 21.2895 55.8623 24.0005 55.8623Z" fill="white"/>
</svg>
