<svg width="278" height="278" viewBox="0 0 278 278" fill="none" xmlns="http://www.w3.org/2000/svg">
<path d="M8.9068 0.61084H0.513672V9.00397H8.9068V0.61084Z" fill="#FFFCFC"/>
<path d="M17.2999 0.61084H8.9068V9.00397H17.2999V0.61084Z" fill="#FFFCFC"/>
<path d="M25.6931 0.61084H17.2999V9.00397H25.6931V0.61084Z" fill="#FFFCFC"/>
<path d="M34.0862 0.61084H25.6931V9.00397H34.0862V0.61084Z" fill="#FFFCFC"/>
<path d="M42.4793 0.61084H34.0862V9.00397H42.4793V0.61084Z" fill="#FFFCFC"/>
<path d="M50.8725 0.61084H42.4793V9.00397H50.8725V0.61084Z" fill="#FFFCFC"/>
<path d="M59.2656 0.61084H50.8725V9.00397H59.2656V0.61084Z" fill="#FFFCFC"/>
<path d="M76.0518 0.61084H67.6587V9.00397H76.0518V0.61084Z" fill="#FFFCFC"/>
<path d="M84.445 0.61084H76.0518V9.00397H84.445V0.61084Z" fill="#FFFCFC"/>
<path d="M109.624 0.61084H101.231V9.00397H109.624V0.61084Z" fill="#FFFCFC"/>
<path d="M126.411 0.61084H118.018V9.00397H126.411V0.61084Z" fill="#FFFCFC"/>
<path d="M185.163 0.61084H176.769V9.00397H185.163V0.61084Z" fill="#FFFCFC"/>
<path d="M210.342 0.61084H201.949V9.00397H210.342V0.61084Z" fill="#FFFCFC"/>
<path d="M227.128 0.61084H218.735V9.00397H227.128V0.61084Z" fill="#FFFCFC"/>
<path d="M235.521 0.61084H227.128V9.00397H235.521V0.61084Z" fill="#FFFCFC"/>
<path d="M243.914 0.61084H235.521V9.00397H243.914V0.61084Z" fill="#FFFCFC"/>
<path d="M252.308 0.61084H243.914V9.00397H252.308V0.61084Z" fill="#FFFCFC"/>
<path d="M260.701 0.61084H252.308V9.00397H260.701V0.61084Z" fill="#FFFCFC"/>
<path d="M269.094 0.61084H260.701V9.00397H269.094V0.61084Z" fill="#FFFCFC"/>
<path d="M277.487 0.61084H269.094V9.00397H277.487V0.61084Z" fill="#FFFCFC"/>
<path d="M8.9068 9.00397H0.513672V17.3971H8.9068V9.00397Z" fill="#FFFCFC"/>
<path d="M59.2656 9.00397H50.8725V17.3971H59.2656V9.00397Z" fill="#FFFCFC"/>
<path d="M92.8381 9.00397H84.445V17.3971H92.8381V9.00397Z" fill="#FFFCFC"/>
<path d="M101.231 9.00397H92.8381V17.3971H101.231V9.00397Z" fill="#FFFCFC"/>
<path d="M109.624 9.00397H101.231V17.3971H109.624V9.00397Z" fill="#FFFCFC"/>
<path d="M134.804 9.00397H126.411V17.3971H134.804V9.00397Z" fill="#FFFCFC"/>
<path d="M143.197 9.00397H134.804V17.3971H143.197V9.00397Z" fill="#FFFCFC"/>
<path d="M176.769 9.00397H168.376V17.3971H176.769V9.00397Z" fill="#FFFCFC"/>
<path d="M185.163 9.00397H176.769V17.3971H185.163V9.00397Z" fill="#FFFCFC"/>
<path d="M201.949 9.00397H193.556V17.3971H201.949V9.00397Z" fill="#FFFCFC"/>
<path d="M227.128 9.00397H218.735V17.3971H227.128V9.00397Z" fill="#FFFCFC"/>
<path d="M277.487 9.00397H269.094V17.3971H277.487V9.00397Z" fill="#FFFCFC"/>
<path d="M8.9068 17.3971H0.513672V25.7902H8.9068V17.3971Z" fill="#FFFCFC"/>
<path d="M25.6931 17.3971H17.2999V25.7902H25.6931V17.3971Z" fill="#FFFCFC"/>
<path d="M34.0862 17.3971H25.6931V25.7902H34.0862V17.3971Z" fill="#FFFCFC"/>
<path d="M42.4793 17.3971H34.0862V25.7902H42.4793V17.3971Z" fill="#FFFCFC"/>
<path d="M59.2656 17.3971H50.8725V25.7902H59.2656V17.3971Z" fill="#FFFCFC"/>
<path d="M76.0518 17.3971H67.6587V25.7902H76.0518V17.3971Z" fill="#FFFCFC"/>
<path d="M126.411 17.3971H118.018V25.7902H126.411V17.3971Z" fill="#FFFCFC"/>
<path d="M159.983 17.3971H151.59V25.7902H159.983V17.3971Z" fill="#FFFCFC"/>
<path d="M185.163 17.3971H176.769V25.7902H185.163V17.3971Z" fill="#FFFCFC"/>
<path d="M193.556 17.3971H185.163V25.7902H193.556V17.3971Z" fill="#FFFCFC"/>
<path d="M210.342 17.3971H201.949V25.7902H210.342V17.3971Z" fill="#FFFCFC"/>
<path d="M227.128 17.3971H218.735V25.7902H227.128V17.3971Z" fill="#FFFCFC"/>
<path d="M243.914 17.3971H235.521V25.7902H243.914V17.3971Z" fill="#FFFCFC"/>
<path d="M252.308 17.3971H243.914V25.7902H252.308V17.3971Z" fill="#FFFCFC"/>
<path d="M260.701 17.3971H252.308V25.7902H260.701V17.3971Z" fill="#FFFCFC"/>
<path d="M277.487 17.3971H269.094V25.7902H277.487V17.3971Z" fill="#FFFCFC"/>
<path d="M8.9068 25.7902H0.513672V34.1834H8.9068V25.7902Z" fill="#FFFCFC"/>
<path d="M25.6931 25.7902H17.2999V34.1834H25.6931V25.7902Z" fill="#FFFCFC"/>
<path d="M34.0862 25.7902H25.6931V34.1834H34.0862V25.7902Z" fill="#FFFCFC"/>
<path d="M42.4793 25.7902H34.0862V34.1834H42.4793V25.7902Z" fill="#FFFCFC"/>
<path d="M59.2656 25.7902H50.8725V34.1834H59.2656V25.7902Z" fill="#FFFCFC"/>
<path d="M76.0518 25.7902H67.6587V34.1834H76.0518V25.7902Z" fill="#FFFCFC"/>
<path d="M84.445 25.7902H76.0518V34.1834H84.445V25.7902Z" fill="#FFFCFC"/>
<path d="M101.231 25.7902H92.8381V34.1834H101.231V25.7902Z" fill="#FFFCFC"/>
<path d="M109.624 25.7902H101.231V34.1834H109.624V25.7902Z" fill="#FFFCFC"/>
<path d="M126.411 25.7902H118.018V34.1834H126.411V25.7902Z" fill="#FFFCFC"/>
<path d="M151.59 25.7902H143.197V34.1834H151.59V25.7902Z" fill="#FFFCFC"/>
<path d="M159.983 25.7902H151.59V34.1834H159.983V25.7902Z" fill="#FFFCFC"/>
<path d="M168.376 25.7902H159.983V34.1834H168.376V25.7902Z" fill="#FFFCFC"/>
<path d="M176.769 25.7902H168.376V34.1834H176.769V25.7902Z" fill="#FFFCFC"/>
<path d="M193.556 25.7902H185.163V34.1834H193.556V25.7902Z" fill="#FFFCFC"/>
<path d="M201.949 25.7902H193.556V34.1834H201.949V25.7902Z" fill="#FFFCFC"/>
<path d="M227.128 25.7902H218.735V34.1834H227.128V25.7902Z" fill="#FFFCFC"/>
<path d="M243.914 25.7902H235.521V34.1834H243.914V25.7902Z" fill="#FFFCFC"/>
<path d="M252.308 25.7902H243.914V34.1834H252.308V25.7902Z" fill="#FFFCFC"/>
<path d="M260.701 25.7902H252.308V34.1834H260.701V25.7902Z" fill="#FFFCFC"/>
<path d="M277.487 25.7902H269.094V34.1834H277.487V25.7902Z" fill="#FFFCFC"/>
<path d="M8.9068 34.1834H0.513672V42.5765H8.9068V34.1834Z" fill="#FFFCFC"/>
<path d="M25.6931 34.1834H17.2999V42.5765H25.6931V34.1834Z" fill="#FFFCFC"/>
<path d="M34.0862 34.1834H25.6931V42.5765H34.0862V34.1834Z" fill="#FFFCFC"/>
<path d="M42.4793 34.1834H34.0862V42.5765H42.4793V34.1834Z" fill="#FFFCFC"/>
<path d="M59.2656 34.1834H50.8725V42.5765H59.2656V34.1834Z" fill="#FFFCFC"/>
<path d="M92.8381 34.1834H84.445V42.5765H92.8381V34.1834Z" fill="#FFFCFC"/>
<path d="M101.231 34.1834H92.8381V42.5765H101.231V34.1834Z" fill="#FFFCFC"/>
<path d="M109.624 34.1834H101.231V42.5765H109.624V34.1834Z" fill="#FFFCFC"/>
<path d="M118.018 34.1834H109.624V42.5765H118.018V34.1834Z" fill="#FFFCFC"/>
<path d="M126.411 34.1834H118.018V42.5765H126.411V34.1834Z" fill="#FFFCFC"/>
<path d="M159.983 34.1834H151.59V42.5765H159.983V34.1834Z" fill="#FFFCFC"/>
<path d="M168.376 34.1834H159.983V42.5765H168.376V34.1834Z" fill="#FFFCFC"/>
<path d="M176.769 34.1834H168.376V42.5765H176.769V34.1834Z" fill="#FFFCFC"/>
<path d="M193.556 34.1834H185.163V42.5765H193.556V34.1834Z" fill="#FFFCFC"/>
<path d="M210.342 34.1834H201.949V42.5765H210.342V34.1834Z" fill="#FFFCFC"/>
<path d="M227.128 34.1834H218.735V42.5765H227.128V34.1834Z" fill="#FFFCFC"/>
<path d="M243.914 34.1834H235.521V42.5765H243.914V34.1834Z" fill="#FFFCFC"/>
<path d="M252.308 34.1834H243.914V42.5765H252.308V34.1834Z" fill="#FFFCFC"/>
<path d="M260.701 34.1834H252.308V42.5765H260.701V34.1834Z" fill="#FFFCFC"/>
<path d="M277.487 34.1834H269.094V42.5765H277.487V34.1834Z" fill="#FFFCFC"/>
<path d="M8.9068 42.5765H0.513672V50.9696H8.9068V42.5765Z" fill="#FFFCFC"/>
<path d="M59.2656 42.5765H50.8725V50.9696H59.2656V42.5765Z" fill="#FFFCFC"/>
<path d="M76.0518 42.5765H67.6587V50.9696H76.0518V42.5765Z" fill="#FFFCFC"/>
<path d="M84.445 42.5765H76.0518V50.9696H84.445V42.5765Z" fill="#FFFCFC"/>
<path d="M92.8381 42.5765H84.445V50.9696H92.8381V42.5765Z" fill="#FFFCFC"/>
<path d="M118.018 42.5765H109.624V50.9696H118.018V42.5765Z" fill="#FFFCFC"/>
<path d="M126.411 42.5765H118.018V50.9696H126.411V42.5765Z" fill="#FFFCFC"/>
<path d="M143.197 42.5765H134.804V50.9696H143.197V42.5765Z" fill="#FFFCFC"/>
<path d="M151.59 42.5765H143.197V50.9696H151.59V42.5765Z" fill="#FFFCFC"/>
<path d="M159.983 42.5765H151.59V50.9696H159.983V42.5765Z" fill="#FFFCFC"/>
<path d="M168.376 42.5765H159.983V50.9696H168.376V42.5765Z" fill="#FFFCFC"/>
<path d="M176.769 42.5765H168.376V50.9696H176.769V42.5765Z" fill="#FFFCFC"/>
<path d="M193.556 42.5765H185.163V50.9696H193.556V42.5765Z" fill="#FFFCFC"/>
<path d="M227.128 42.5765H218.735V50.9696H227.128V42.5765Z" fill="#FFFCFC"/>
<path d="M277.487 42.5765H269.094V50.9696H277.487V42.5765Z" fill="#FFFCFC"/>
<path d="M8.9068 50.9696H0.513672V59.3628H8.9068V50.9696Z" fill="#FFFCFC"/>
<path d="M17.2999 50.9696H8.9068V59.3628H17.2999V50.9696Z" fill="#FFFCFC"/>
<path d="M25.6931 50.9696H17.2999V59.3628H25.6931V50.9696Z" fill="#FFFCFC"/>
<path d="M34.0862 50.9696H25.6931V59.3628H34.0862V50.9696Z" fill="#FFFCFC"/>
<path d="M42.4793 50.9696H34.0862V59.3628H42.4793V50.9696Z" fill="#FFFCFC"/>
<path d="M50.8725 50.9696H42.4793V59.3628H50.8725V50.9696Z" fill="#FFFCFC"/>
<path d="M59.2656 50.9696H50.8725V59.3628H59.2656V50.9696Z" fill="#FFFCFC"/>
<path d="M76.0518 50.9696H67.6587V59.3628H76.0518V50.9696Z" fill="#FFFCFC"/>
<path d="M92.8381 50.9696H84.445V59.3628H92.8381V50.9696Z" fill="#FFFCFC"/>
<path d="M109.624 50.9696H101.231V59.3628H109.624V50.9696Z" fill="#FFFCFC"/>
<path d="M126.411 50.9696H118.018V59.3628H126.411V50.9696Z" fill="#FFFCFC"/>
<path d="M143.197 50.9696H134.804V59.3628H143.197V50.9696Z" fill="#FFFCFC"/>
<path d="M159.983 50.9696H151.59V59.3628H159.983V50.9696Z" fill="#FFFCFC"/>
<path d="M176.769 50.9696H168.376V59.3628H176.769V50.9696Z" fill="#FFFCFC"/>
<path d="M193.556 50.9696H185.163V59.3628H193.556V50.9696Z" fill="#FFFCFC"/>
<path d="M210.342 50.9696H201.949V59.3628H210.342V50.9696Z" fill="#FFFCFC"/>
<path d="M227.128 50.9696H218.735V59.3628H227.128V50.9696Z" fill="#FFFCFC"/>
<path d="M235.521 50.9696H227.128V59.3628H235.521V50.9696Z" fill="#FFFCFC"/>
<path d="M243.914 50.9696H235.521V59.3628H243.914V50.9696Z" fill="#FFFCFC"/>
<path d="M252.308 50.9696H243.914V59.3628H252.308V50.9696Z" fill="#FFFCFC"/>
<path d="M260.701 50.9696H252.308V59.3628H260.701V50.9696Z" fill="#FFFCFC"/>
<path d="M269.094 50.9696H260.701V59.3628H269.094V50.9696Z" fill="#FFFCFC"/>
<path d="M277.487 50.9696H269.094V59.3628H277.487V50.9696Z" fill="#FFFCFC"/>
<path d="M76.0518 59.3628H67.6587V67.7559H76.0518V59.3628Z" fill="#FFFCFC"/>
<path d="M84.445 59.3628H76.0518V67.7559H84.445V59.3628Z" fill="#FFFCFC"/>
<path d="M92.8381 59.3628H84.445V67.7559H92.8381V59.3628Z" fill="#FFFCFC"/>
<path d="M159.983 59.3628H151.59V67.7559H159.983V59.3628Z" fill="#FFFCFC"/>
<path d="M168.376 59.3628H159.983V67.7559H168.376V59.3628Z" fill="#FFFCFC"/>
<path d="M185.163 59.3628H176.769V67.7559H185.163V59.3628Z" fill="#FFFCFC"/>
<path d="M201.949 59.3628H193.556V67.7559H201.949V59.3628Z" fill="#FFFCFC"/>
<path d="M8.9068 67.7559H0.513672V76.149H8.9068V67.7559Z" fill="#FFFCFC"/>
<path d="M17.2999 67.7559H8.9068V76.149H17.2999V67.7559Z" fill="#FFFCFC"/>
<path d="M34.0862 67.7559H25.6931V76.149H34.0862V67.7559Z" fill="#FFFCFC"/>
<path d="M59.2656 67.7559H50.8725V76.149H59.2656V67.7559Z" fill="#FFFCFC"/>
<path d="M67.6587 67.7559H59.2656V76.149H67.6587V67.7559Z" fill="#FFFCFC"/>
<path d="M92.8381 67.7559H84.445V76.149H92.8381V67.7559Z" fill="#FFFCFC"/>
<path d="M101.231 67.7559H92.8381V76.149H101.231V67.7559Z" fill="#FFFCFC"/>
<path d="M126.411 67.7559H118.018V76.149H126.411V67.7559Z" fill="#FFFCFC"/>
<path d="M143.197 67.7559H134.804V76.149H143.197V67.7559Z" fill="#FFFCFC"/>
<path d="M151.59 67.7559H143.197V76.149H151.59V67.7559Z" fill="#FFFCFC"/>
<path d="M159.983 67.7559H151.59V76.149H159.983V67.7559Z" fill="#FFFCFC"/>
<path d="M176.769 67.7559H168.376V76.149H176.769V67.7559Z" fill="#FFFCFC"/>
<path d="M185.163 67.7559H176.769V76.149H185.163V67.7559Z" fill="#FFFCFC"/>
<path d="M193.556 67.7559H185.163V76.149H193.556V67.7559Z" fill="#FFFCFC"/>
<path d="M201.949 67.7559H193.556V76.149H201.949V67.7559Z" fill="#FFFCFC"/>
<path d="M218.735 67.7559H210.342V76.149H218.735V67.7559Z" fill="#FFFCFC"/>
<path d="M227.128 67.7559H218.735V76.149H227.128V67.7559Z" fill="#FFFCFC"/>
<path d="M235.521 67.7559H227.128V76.149H235.521V67.7559Z" fill="#FFFCFC"/>
<path d="M252.308 67.7559H243.914V76.149H252.308V67.7559Z" fill="#FFFCFC"/>
<path d="M260.701 67.7559H252.308V76.149H260.701V67.7559Z" fill="#FFFCFC"/>
<path d="M277.487 67.7559H269.094V76.149H277.487V67.7559Z" fill="#FFFCFC"/>
<path d="M8.9068 76.149H0.513672V84.5421H8.9068V76.149Z" fill="#FFFCFC"/>
<path d="M25.6931 76.149H17.2999V84.5421H25.6931V76.149Z" fill="#FFFCFC"/>
<path d="M50.8725 76.149H42.4793V84.5421H50.8725V76.149Z" fill="#FFFCFC"/>
<path d="M76.0518 76.149H67.6587V84.5421H76.0518V76.149Z" fill="#FFFCFC"/>
<path d="M84.445 76.149H76.0518V84.5421H84.445V76.149Z" fill="#FFFCFC"/>
<path d="M101.231 76.149H92.8381V84.5421H101.231V76.149Z" fill="#FFFCFC"/>
<path d="M109.624 76.149H101.231V84.5421H109.624V76.149Z" fill="#FFFCFC"/>
<path d="M126.411 76.149H118.018V84.5421H126.411V76.149Z" fill="#FFFCFC"/>
<path d="M151.59 76.149H143.197V84.5421H151.59V76.149Z" fill="#FFFCFC"/>
<path d="M193.556 76.149H185.163V84.5421H193.556V76.149Z" fill="#FFFCFC"/>
<path d="M210.342 76.149H201.949V84.5421H210.342V76.149Z" fill="#FFFCFC"/>
<path d="M218.735 76.149H210.342V84.5421H218.735V76.149Z" fill="#FFFCFC"/>
<path d="M235.521 76.149H227.128V84.5421H235.521V76.149Z" fill="#FFFCFC"/>
<path d="M252.308 76.149H243.914V84.5421H252.308V76.149Z" fill="#FFFCFC"/>
<path d="M260.701 76.149H252.308V84.5421H260.701V76.149Z" fill="#FFFCFC"/>
<path d="M269.094 76.149H260.701V84.5421H269.094V76.149Z" fill="#FFFCFC"/>
<path d="M59.2656 84.5421H50.8725V92.9353H59.2656V84.5421Z" fill="#FFFCFC"/>
<path d="M76.0518 84.5421H67.6587V92.9353H76.0518V84.5421Z" fill="#FFFCFC"/>
<path d="M92.8381 84.5421H84.445V92.9353H92.8381V84.5421Z" fill="#FFFCFC"/>
<path d="M101.231 84.5421H92.8381V92.9353H101.231V84.5421Z" fill="#FFFCFC"/>
<path d="M118.018 84.5421H109.624V92.9353H118.018V84.5421Z" fill="#FFFCFC"/>
<path d="M176.769 84.5421H168.376V92.9353H176.769V84.5421Z" fill="#FFFCFC"/>
<path d="M185.163 84.5421H176.769V92.9353H185.163V84.5421Z" fill="#FFFCFC"/>
<path d="M201.949 84.5421H193.556V92.9353H201.949V84.5421Z" fill="#FFFCFC"/>
<path d="M218.735 84.5421H210.342V92.9353H218.735V84.5421Z" fill="#FFFCFC"/>
<path d="M235.521 84.5421H227.128V92.9353H235.521V84.5421Z" fill="#FFFCFC"/>
<path d="M260.701 84.5421H252.308V92.9353H260.701V84.5421Z" fill="#FFFCFC"/>
<path d="M269.094 84.5421H260.701V92.9353H269.094V84.5421Z" fill="#FFFCFC"/>
<path d="M25.6931 92.9353H17.2999V101.328H25.6931V92.9353Z" fill="#FFFCFC"/>
<path d="M50.8725 92.9353H42.4793V101.328H50.8725V92.9353Z" fill="#FFFCFC"/>
<path d="M84.445 92.9353H76.0518V101.328H84.445V92.9353Z" fill="#FFFCFC"/>
<path d="M92.8381 92.9353H84.445V101.328H92.8381V92.9353Z" fill="#FFFCFC"/>
<path d="M118.018 92.9353H109.624V101.328H118.018V92.9353Z" fill="#FFFCFC"/>
<path d="M126.411 92.9353H118.018V101.328H126.411V92.9353Z" fill="#FFFCFC"/>
<path d="M143.197 92.9353H134.804V101.328H143.197V92.9353Z" fill="#FFFCFC"/>
<path d="M151.59 92.9353H143.197V101.328H151.59V92.9353Z" fill="#FFFCFC"/>
<path d="M159.983 92.9353H151.59V101.328H159.983V92.9353Z" fill="#FFFCFC"/>
<path d="M168.376 92.9353H159.983V101.328H168.376V92.9353Z" fill="#FFFCFC"/>
<path d="M176.769 92.9353H168.376V101.328H176.769V92.9353Z" fill="#FFFCFC"/>
<path d="M193.556 92.9353H185.163V101.328H193.556V92.9353Z" fill="#FFFCFC"/>
<path d="M227.128 92.9353H218.735V101.328H227.128V92.9353Z" fill="#FFFCFC"/>
<path d="M235.521 92.9353H227.128V101.328H235.521V92.9353Z" fill="#FFFCFC"/>
<path d="M252.308 92.9353H243.914V101.328H252.308V92.9353Z" fill="#FFFCFC"/>
<path d="M8.9068 101.328H0.513672V109.722H8.9068V101.328Z" fill="#FFFCFC"/>
<path d="M25.6931 101.328H17.2999V109.722H25.6931V101.328Z" fill="#FFFCFC"/>
<path d="M34.0862 101.328H25.6931V109.722H34.0862V101.328Z" fill="#FFFCFC"/>
<path d="M42.4793 101.328H34.0862V109.722H42.4793V101.328Z" fill="#FFFCFC"/>
<path d="M59.2656 101.328H50.8725V109.722H59.2656V101.328Z" fill="#FFFCFC"/>
<path d="M76.0518 101.328H67.6587V109.722H76.0518V101.328Z" fill="#FFFCFC"/>
<path d="M118.018 101.328H109.624V109.722H118.018V101.328Z" fill="#FFFCFC"/>
<path d="M168.376 101.328H159.983L159.983 109.722H168.376V101.328Z" fill="#FFFCFC"/>
<path d="M201.949 101.328H193.556V109.722H201.949V101.328Z" fill="#FFFCFC"/>
<path d="M235.521 101.328H227.128V109.722H235.521V101.328Z" fill="#FFFCFC"/>
<path d="M252.308 101.328H243.914V109.722H252.308V101.328Z" fill="#FFFCFC"/>
<path d="M269.094 101.328H260.701V109.722H269.094V101.328Z" fill="#FFFCFC"/>
<path d="M277.487 101.328H269.094V109.722H277.487V101.328Z" fill="#FFFCFC"/>
<path d="M8.9068 109.722H0.513672V118.115H8.9068V109.722Z" fill="#FFFCFC"/>
<path d="M17.2999 109.722H8.9068V118.115H17.2999V109.722Z" fill="#FFFCFC"/>
<path d="M50.8725 109.722H42.4793V118.115H50.8725V109.722Z" fill="#FFFCFC"/>
<path d="M101.231 109.722H92.8381V118.115H101.231V109.722Z" fill="#FFFCFC"/>
<path d="M126.411 109.722H118.018V118.115H126.411V109.722Z" fill="#FFFCFC"/>
<path d="M134.804 109.722H126.411V118.115H134.804V109.722Z" fill="#FFFCFC"/>
<path d="M143.197 109.722H134.804V118.115H143.197V109.722Z" fill="#FFFCFC"/>
<path d="M151.59 109.722H143.197V118.115H151.59V109.722Z" fill="#FFFCFC"/>
<path d="M193.556 109.722H185.163V118.115H193.556V109.722Z" fill="#FFFCFC"/>
<path d="M210.342 109.722H201.949V118.115H210.342V109.722Z" fill="#FFFCFC"/>
<path d="M235.521 109.722H227.128V118.115H235.521V109.722Z" fill="#FFFCFC"/>
<path d="M260.701 109.722H252.308V118.115H260.701V109.722Z" fill="#FFFCFC"/>
<path d="M269.094 109.722H260.701V118.115H269.094V109.722Z" fill="#FFFCFC"/>
<path d="M277.487 109.722H269.094V118.115H277.487V109.722Z" fill="#FFFCFC"/>
<path d="M34.0862 118.115H25.6931V126.508H34.0862V118.115Z" fill="#FFFCFC"/>
<path d="M42.4793 118.115H34.0862V126.508H42.4793V118.115Z" fill="#FFFCFC"/>
<path d="M50.8725 118.115H42.4793V126.508H50.8725V118.115Z" fill="#FFFCFC"/>
<path d="M59.2656 118.115H50.8725V126.508H59.2656V118.115Z" fill="#FFFCFC"/>
<path d="M67.6587 118.115H59.2656V126.508H67.6587V118.115Z" fill="#FFFCFC"/>
<path d="M76.0518 118.115H67.6587V126.508H76.0518V118.115Z" fill="#FFFCFC"/>
<path d="M92.8381 118.115H84.445V126.508H92.8381V118.115Z" fill="#FFFCFC"/>
<path d="M101.231 118.115H92.8381V126.508H101.231V118.115Z" fill="#FFFCFC"/>
<path d="M126.411 118.115H118.018V126.508H126.411V118.115Z" fill="#FFFCFC"/>
<path d="M134.804 118.115H126.411V126.508H134.804V118.115Z" fill="#FFFCFC"/>
<path d="M159.983 118.115H151.59V126.508H159.983V118.115Z" fill="#FFFCFC"/>
<path d="M176.769 118.115H168.376V126.508H176.769V118.115Z" fill="#FFFCFC"/>
<path d="M185.163 118.115H176.769V126.508H185.163V118.115Z" fill="#FFFCFC"/>
<path d="M201.949 118.115H193.556V126.508H201.949V118.115Z" fill="#FFFCFC"/>
<path d="M235.521 118.115H227.128V126.508H235.521V118.115Z" fill="#FFFCFC"/>
<path d="M243.914 118.115H235.521V126.508H243.914V118.115Z" fill="#FFFCFC"/>
<path d="M252.308 118.115H243.914V126.508H252.308V118.115Z" fill="#FFFCFC"/>
<path d="M101.231 126.508H92.8381V134.901H101.231V126.508Z" fill="#FFFCFC"/>
<path d="M109.624 126.508H101.231V134.901H109.624V126.508Z" fill="#FFFCFC"/>
<path d="M126.411 126.508H118.018V134.901H126.411V126.508Z" fill="#FFFCFC"/>
<path d="M143.197 126.508H134.804V134.901H143.197V126.508Z" fill="#FFFCFC"/>
<path d="M151.59 126.508H143.197V134.901H151.59V126.508Z" fill="#FFFCFC"/>
<path d="M159.983 126.508H151.59V134.901H159.983V126.508Z" fill="#FFFCFC"/>
<path d="M185.163 126.508H176.769V134.901H185.163V126.508Z" fill="#FFFCFC"/>
<path d="M210.342 126.508H201.949V134.901H210.342V126.508Z" fill="#FFFCFC"/>
<path d="M218.735 126.508H210.342V134.901H218.735V126.508Z" fill="#FFFCFC"/>
<path d="M235.521 126.508H227.128V134.901H235.521V126.508Z" fill="#FFFCFC"/>
<path d="M269.094 126.508H260.701V134.901H269.094V126.508Z" fill="#FFFCFC"/>
<path d="M277.487 126.508H269.094V134.901H277.487V126.508Z" fill="#FFFCFC"/>
<path d="M8.9068 134.901H0.513672V143.294H8.9068V134.901Z" fill="#FFFCFC"/>
<path d="M25.6931 134.901H17.2999V143.294H25.6931V134.901Z" fill="#FFFCFC"/>
<path d="M34.0862 134.901H25.6931V143.294H34.0862V134.901Z" fill="#FFFCFC"/>
<path d="M59.2656 134.901H50.8725V143.294H59.2656V134.901Z" fill="#FFFCFC"/>
<path d="M118.018 134.901H109.624V143.294H118.018V134.901Z" fill="#FFFCFC"/>
<path d="M126.411 134.901H118.018V143.294H126.411V134.901Z" fill="#FFFCFC"/>
<path d="M134.804 134.901H126.411V143.294H134.804V134.901Z" fill="#FFFCFC"/>
<path d="M143.197 134.901H134.804V143.294H143.197V134.901Z" fill="#FFFCFC"/>
<path d="M151.59 134.901H143.197V143.294H151.59V134.901Z" fill="#FFFCFC"/>
<path d="M168.376 134.901H159.983L159.983 143.294H168.376V134.901Z" fill="#FFFCFC"/>
<path d="M193.556 134.901H185.163V143.294H193.556V134.901Z" fill="#FFFCFC"/>
<path d="M201.949 134.901H193.556V143.294H201.949V134.901Z" fill="#FFFCFC"/>
<path d="M210.342 134.901H201.949V143.294H210.342V134.901Z" fill="#FFFCFC"/>
<path d="M235.521 134.901H227.128V143.294H235.521V134.901Z" fill="#FFFCFC"/>
<path d="M269.094 134.901H260.701V143.294H269.094V134.901Z" fill="#FFFCFC"/>
<path d="M8.9068 143.294H0.513672V151.687H8.9068V143.294Z" fill="#FFFCFC"/>
<path d="M25.6931 143.294H17.2999V151.687H25.6931V143.294Z" fill="#FFFCFC"/>
<path d="M42.4793 143.294H34.0862V151.687H42.4793V143.294Z" fill="#FFFCFC"/>
<path d="M67.6587 143.294H59.2656V151.687H67.6587V143.294Z" fill="#FFFCFC"/>
<path d="M76.0518 143.294H67.6587V151.687H76.0518V143.294Z" fill="#FFFCFC"/>
<path d="M92.8381 143.294H84.445V151.687H92.8381V143.294Z" fill="#FFFCFC"/>
<path d="M118.018 143.294H109.624V151.687H118.018V143.294Z" fill="#FFFCFC"/>
<path d="M126.411 143.294H118.018V151.687H126.411V143.294Z" fill="#FFFCFC"/>
<path d="M143.197 143.294H134.804V151.687H143.197V143.294Z" fill="#FFFCFC"/>
<path d="M151.59 143.294H143.197V151.687H151.59V143.294Z" fill="#FFFCFC"/>
<path d="M159.983 143.294H151.59V151.687H159.983L159.983 143.294Z" fill="#FFFCFC"/>
<path d="M210.342 143.294H201.949V151.687H210.342V143.294Z" fill="#FFFCFC"/>
<path d="M218.735 143.294H210.342V151.687H218.735V143.294Z" fill="#FFFCFC"/>
<path d="M243.914 143.294H235.521V151.687H243.914V143.294Z" fill="#FFFCFC"/>
<path d="M260.701 143.294H252.308V151.687H260.701V143.294Z" fill="#FFFCFC"/>
<path d="M269.094 143.294H260.701V151.687H269.094V143.294Z" fill="#FFFCFC"/>
<path d="M277.487 143.294H269.094V151.687H277.487V143.294Z" fill="#FFFCFC"/>
<path d="M8.9068 151.687H0.513672V160.08H8.9068V151.687Z" fill="#FFFCFC"/>
<path d="M17.2999 151.687H8.9068V160.08H17.2999V151.687Z" fill="#FFFCFC"/>
<path d="M59.2656 151.687H50.8725V160.08H59.2656V151.687Z" fill="#FFFCFC"/>
<path d="M67.6587 151.687H59.2656V160.08H67.6587V151.687Z" fill="#FFFCFC"/>
<path d="M101.231 151.687H92.8381V160.08H101.231V151.687Z" fill="#FFFCFC"/>
<path d="M109.624 151.687H101.231V160.08H109.624V151.687Z" fill="#FFFCFC"/>
<path d="M118.018 151.687H109.624V160.08H118.018V151.687Z" fill="#FFFCFC"/>
<path d="M134.804 151.687H126.411V160.08H134.804V151.687Z" fill="#FFFCFC"/>
<path d="M143.197 151.687H134.804V160.08H143.197V151.687Z" fill="#FFFCFC"/>
<path d="M176.769 151.687H168.376V160.08H176.769V151.687Z" fill="#FFFCFC"/>
<path d="M185.163 151.687H176.769V160.08H185.163V151.687Z" fill="#FFFCFC"/>
<path d="M201.949 151.687H193.556V160.08H201.949V151.687Z" fill="#FFFCFC"/>
<path d="M210.342 151.687H201.949V160.08H210.342V151.687Z" fill="#FFFCFC"/>
<path d="M218.735 151.687H210.342V160.08H218.735V151.687Z" fill="#FFFCFC"/>
<path d="M252.308 151.687H243.914V160.08H252.308V151.687Z" fill="#FFFCFC"/>
<path d="M269.094 151.687H260.701V160.08H269.094V151.687Z" fill="#FFFCFC"/>
<path d="M8.9068 160.08H0.513672V168.473H8.9068V160.08Z" fill="#FFFCFC"/>
<path d="M50.8725 160.08L42.4793 160.08V168.473H50.8725V160.08Z" fill="#FFFCFC"/>
<path d="M76.0518 160.08L67.6587 160.08V168.473H76.0518V160.08Z" fill="#FFFCFC"/>
<path d="M84.445 160.08H76.0518V168.473H84.445V160.08Z" fill="#FFFCFC"/>
<path d="M134.804 160.08H126.411V168.473H134.804V160.08Z" fill="#FFFCFC"/>
<path d="M143.197 160.08H134.804V168.473H143.197V160.08Z" fill="#FFFCFC"/>
<path d="M176.769 160.08H168.376V168.473H176.769V160.08Z" fill="#FFFCFC"/>
<path d="M201.949 160.08H193.556V168.473H201.949V160.08Z" fill="#FFFCFC"/>
<path d="M218.735 160.08H210.342V168.473H218.735V160.08Z" fill="#FFFCFC"/>
<path d="M227.128 160.08L218.735 160.08V168.473H227.128V160.08Z" fill="#FFFCFC"/>
<path d="M235.521 160.08H227.128V168.473H235.521V160.08Z" fill="#FFFCFC"/>
<path d="M252.308 160.08H243.914V168.473H252.308V160.08Z" fill="#FFFCFC"/>
<path d="M260.701 160.08H252.308V168.473H260.701V160.08Z" fill="#FFFCFC"/>
<path d="M269.094 160.08H260.701V168.473H269.094V160.08Z" fill="#FFFCFC"/>
<path d="M8.9068 168.473H0.513672V176.867H8.9068V168.473Z" fill="#FFFCFC"/>
<path d="M17.2999 168.473H8.9068V176.867H17.2999V168.473Z" fill="#FFFCFC"/>
<path d="M25.6931 168.473H17.2999V176.867H25.6931V168.473Z" fill="#FFFCFC"/>
<path d="M34.0862 168.473H25.6931V176.867H34.0862V168.473Z" fill="#FFFCFC"/>
<path d="M42.4793 168.473H34.0862V176.867H42.4793V168.473Z" fill="#FFFCFC"/>
<path d="M50.8725 168.473H42.4793V176.867H50.8725V168.473Z" fill="#FFFCFC"/>
<path d="M59.2656 168.473H50.8725V176.867H59.2656V168.473Z" fill="#FFFCFC"/>
<path d="M67.6587 168.473H59.2656V176.867H67.6587V168.473Z" fill="#FFFCFC"/>
<path d="M76.0518 168.473H67.6587V176.867H76.0518V168.473Z" fill="#FFFCFC"/>
<path d="M92.8381 168.473H84.445V176.867H92.8381V168.473Z" fill="#FFFCFC"/>
<path d="M134.804 168.473H126.411V176.867H134.804V168.473Z" fill="#FFFCFC"/>
<path d="M159.983 168.473H151.59V176.867H159.983V168.473Z" fill="#FFFCFC"/>
<path d="M168.376 168.473H159.983V176.867H168.376V168.473Z" fill="#FFFCFC"/>
<path d="M176.769 168.473H168.376V176.867H176.769V168.473Z" fill="#FFFCFC"/>
<path d="M210.342 168.473H201.949V176.867H210.342V168.473Z" fill="#FFFCFC"/>
<path d="M218.735 168.473H210.342V176.867H218.735V168.473Z" fill="#FFFCFC"/>
<path d="M227.128 168.473H218.735V176.867H227.128V168.473Z" fill="#FFFCFC"/>
<path d="M243.914 168.473H235.521V176.867H243.914V168.473Z" fill="#FFFCFC"/>
<path d="M252.308 168.473H243.914V176.867H252.308V168.473Z" fill="#FFFCFC"/>
<path d="M277.487 168.473H269.094V176.867H277.487V168.473Z" fill="#FFFCFC"/>
<path d="M17.2999 176.867H8.9068V185.26H17.2999V176.867Z" fill="#FFFCFC"/>
<path d="M25.6931 176.867H17.2999V185.26H25.6931V176.867Z" fill="#FFFCFC"/>
<path d="M34.0862 176.867H25.6931V185.26H34.0862V176.867Z" fill="#FFFCFC"/>
<path d="M50.8725 176.867H42.4793V185.26H50.8725V176.867Z" fill="#FFFCFC"/>
<path d="M76.0518 176.867H67.6587V185.26H76.0518V176.867Z" fill="#FFFCFC"/>
<path d="M84.445 176.867H76.0518V185.26H84.445V176.867Z" fill="#FFFCFC"/>
<path d="M109.624 176.867H101.231V185.26H109.624V176.867Z" fill="#FFFCFC"/>
<path d="M126.411 176.867H118.018V185.26H126.411V176.867Z" fill="#FFFCFC"/>
<path d="M134.804 176.867H126.411V185.26H134.804V176.867Z" fill="#FFFCFC"/>
<path d="M143.197 176.867H134.804V185.26H143.197V176.867Z" fill="#FFFCFC"/>
<path d="M151.59 176.867H143.197V185.26H151.59V176.867Z" fill="#FFFCFC"/>
<path d="M168.376 176.867H159.983L159.983 185.26H168.376V176.867Z" fill="#FFFCFC"/>
<path d="M185.163 176.867H176.769V185.26H185.163V176.867Z" fill="#FFFCFC"/>
<path d="M193.556 176.867H185.163V185.26H193.556V176.867Z" fill="#FFFCFC"/>
<path d="M235.521 176.867H227.128V185.26H235.521V176.867Z" fill="#FFFCFC"/>
<path d="M277.487 176.867H269.094V185.26H277.487V176.867Z" fill="#FFFCFC"/>
<path d="M8.9068 185.26H0.513672V193.653H8.9068V185.26Z" fill="#FFFCFC"/>
<path d="M17.2999 185.26H8.9068V193.653H17.2999V185.26Z" fill="#FFFCFC"/>
<path d="M25.6931 185.26H17.2999V193.653H25.6931V185.26Z" fill="#FFFCFC"/>
<path d="M34.0862 185.26H25.6931V193.653H34.0862V185.26Z" fill="#FFFCFC"/>
<path d="M59.2656 185.26H50.8725V193.653H59.2656V185.26Z" fill="#FFFCFC"/>
<path d="M67.6587 185.26H59.2656V193.653H67.6587V185.26Z" fill="#FFFCFC"/>
<path d="M76.0518 185.26H67.6587V193.653H76.0518V185.26Z" fill="#FFFCFC"/>
<path d="M84.445 185.26H76.0518V193.653H84.445V185.26Z" fill="#FFFCFC"/>
<path d="M118.018 185.26H109.624V193.653H118.018V185.26Z" fill="#FFFCFC"/>
<path d="M159.983 185.26H151.59V193.653H159.983L159.983 185.26Z" fill="#FFFCFC"/>
<path d="M193.556 185.26H185.163V193.653H193.556V185.26Z" fill="#FFFCFC"/>
<path d="M210.342 185.26H201.949V193.653H210.342V185.26Z" fill="#FFFCFC"/>
<path d="M227.128 185.26H218.735V193.653H227.128V185.26Z" fill="#FFFCFC"/>
<path d="M235.521 185.26H227.128V193.653H235.521V185.26Z" fill="#FFFCFC"/>
<path d="M260.701 185.26H252.308V193.653H260.701V185.26Z" fill="#FFFCFC"/>
<path d="M277.487 185.26H269.094V193.653H277.487V185.26Z" fill="#FFFCFC"/>
<path d="M8.9068 193.653H0.513672V202.046H8.9068V193.653Z" fill="#FFFCFC"/>
<path d="M17.2999 193.653H8.9068V202.046H17.2999V193.653Z" fill="#FFFCFC"/>
<path d="M25.6931 193.653H17.2999V202.046H25.6931V193.653Z" fill="#FFFCFC"/>
<path d="M42.4793 193.653H34.0862V202.046H42.4793V193.653Z" fill="#FFFCFC"/>
<path d="M67.6587 193.653H59.2656V202.046H67.6587V193.653Z" fill="#FFFCFC"/>
<path d="M84.445 193.653H76.0518V202.046H84.445V193.653Z" fill="#FFFCFC"/>
<path d="M92.8381 193.653H84.445V202.046H92.8381V193.653Z" fill="#FFFCFC"/>
<path d="M118.018 193.653H109.624V202.046H118.018V193.653Z" fill="#FFFCFC"/>
<path d="M126.411 193.653H118.018V202.046H126.411V193.653Z" fill="#FFFCFC"/>
<path d="M134.804 193.653H126.411V202.046H134.804V193.653Z" fill="#FFFCFC"/>
<path d="M151.59 193.653H143.197V202.046H151.59V193.653Z" fill="#FFFCFC"/>
<path d="M168.376 193.653H159.983L159.983 202.046H168.376V193.653Z" fill="#FFFCFC"/>
<path d="M176.769 193.653H168.376V202.046H176.769V193.653Z" fill="#FFFCFC"/>
<path d="M193.556 193.653H185.163V202.046H193.556V193.653Z" fill="#FFFCFC"/>
<path d="M201.949 193.653H193.556V202.046H201.949V193.653Z" fill="#FFFCFC"/>
<path d="M227.128 193.653H218.735V202.046H227.128V193.653Z" fill="#FFFCFC"/>
<path d="M243.914 193.653H235.521V202.046H243.914V193.653Z" fill="#FFFCFC"/>
<path d="M260.701 193.653H252.308V202.046H260.701V193.653Z" fill="#FFFCFC"/>
<path d="M8.9068 202.046H0.513672V210.439H8.9068V202.046Z" fill="#FFFCFC"/>
<path d="M25.6931 202.046H17.2999V210.439H25.6931V202.046Z" fill="#FFFCFC"/>
<path d="M50.8725 202.046H42.4793V210.439H50.8725V202.046Z" fill="#FFFCFC"/>
<path d="M59.2656 202.046H50.8725V210.439H59.2656V202.046Z" fill="#FFFCFC"/>
<path d="M76.0518 202.046H67.6587V210.439H76.0518V202.046Z" fill="#FFFCFC"/>
<path d="M84.445 202.046H76.0518V210.439H84.445V202.046Z" fill="#FFFCFC"/>
<path d="M92.8381 202.046H84.445V210.439H92.8381V202.046Z" fill="#FFFCFC"/>
<path d="M101.231 202.046H92.8381V210.439H101.231V202.046Z" fill="#FFFCFC"/>
<path d="M109.624 202.046H101.231V210.439H109.624V202.046Z" fill="#FFFCFC"/>
<path d="M118.018 202.046H109.624V210.439H118.018V202.046Z" fill="#FFFCFC"/>
<path d="M143.197 202.046H134.804V210.439H143.197V202.046Z" fill="#FFFCFC"/>
<path d="M159.983 202.046H151.59V210.439H159.983L159.983 202.046Z" fill="#FFFCFC"/>
<path d="M185.163 202.046H176.769V210.439H185.163V202.046Z" fill="#FFFCFC"/>
<path d="M201.949 202.046H193.556V210.439H201.949V202.046Z" fill="#FFFCFC"/>
<path d="M210.342 202.046H201.949V210.439H210.342V202.046Z" fill="#FFFCFC"/>
<path d="M218.735 202.046H210.342V210.439H218.735V202.046Z" fill="#FFFCFC"/>
<path d="M227.128 202.046H218.735V210.439H227.128V202.046Z" fill="#FFFCFC"/>
<path d="M235.521 202.046H227.128V210.439H235.521V202.046Z" fill="#FFFCFC"/>
<path d="M243.914 202.046H235.521V210.439H243.914V202.046Z" fill="#FFFCFC"/>
<path d="M260.701 202.046H252.308V210.439H260.701V202.046Z" fill="#FFFCFC"/>
<path d="M269.094 202.046H260.701V210.439H269.094V202.046Z" fill="#FFFCFC"/>
<path d="M92.8381 210.439H84.445V218.832H92.8381V210.439Z" fill="#FFFCFC"/>
<path d="M118.018 210.439H109.624V218.832H118.018V210.439Z" fill="#FFFCFC"/>
<path d="M126.411 210.439H118.018V218.832H126.411V210.439Z" fill="#FFFCFC"/>
<path d="M134.804 210.439H126.411V218.832H134.804V210.439Z" fill="#FFFCFC"/>
<path d="M159.983 210.439H151.59V218.832H159.983V210.439Z" fill="#FFFCFC"/>
<path d="M176.769 210.439H168.376V218.832H176.769V210.439Z" fill="#FFFCFC"/>
<path d="M185.163 210.439H176.769V218.832H185.163V210.439Z" fill="#FFFCFC"/>
<path d="M201.949 210.439H193.556V218.832H201.949V210.439Z" fill="#FFFCFC"/>
<path d="M210.342 210.439H201.949V218.832H210.342V210.439Z" fill="#FFFCFC"/>
<path d="M243.914 210.439H235.521V218.832H243.914V210.439Z" fill="#FFFCFC"/>
<path d="M252.308 210.439H243.914V218.832H252.308V210.439Z" fill="#FFFCFC"/>
<path d="M260.701 210.439H252.308V218.832H260.701V210.439Z" fill="#FFFCFC"/>
<path d="M8.9068 218.832H0.513672V227.225H8.9068V218.832Z" fill="#FFFCFC"/>
<path d="M17.2999 218.832H8.9068V227.225H17.2999V218.832Z" fill="#FFFCFC"/>
<path d="M25.6931 218.832H17.2999V227.225H25.6931V218.832Z" fill="#FFFCFC"/>
<path d="M34.0862 218.832H25.6931V227.225H34.0862V218.832Z" fill="#FFFCFC"/>
<path d="M42.4793 218.832H34.0862V227.225H42.4793V218.832Z" fill="#FFFCFC"/>
<path d="M50.8725 218.832H42.4793V227.225H50.8725V218.832Z" fill="#FFFCFC"/>
<path d="M59.2656 218.832H50.8725V227.225H59.2656V218.832Z" fill="#FFFCFC"/>
<path d="M76.0518 218.832H67.6587V227.225H76.0518V218.832Z" fill="#FFFCFC"/>
<path d="M92.8381 218.832H84.445V227.225H92.8381V218.832Z" fill="#FFFCFC"/>
<path d="M143.197 218.832H134.804V227.225H143.197V218.832Z" fill="#FFFCFC"/>
<path d="M151.59 218.832H143.197V227.225H151.59V218.832Z" fill="#FFFCFC"/>
<path d="M185.163 218.832H176.769V227.225H185.163V218.832Z" fill="#FFFCFC"/>
<path d="M210.342 218.832H201.949V227.225H210.342V218.832Z" fill="#FFFCFC"/>
<path d="M227.128 218.832H218.735V227.225H227.128V218.832Z" fill="#FFFCFC"/>
<path d="M243.914 218.832H235.521V227.225H243.914V218.832Z" fill="#FFFCFC"/>
<path d="M260.701 218.832H252.308V227.225H260.701V218.832Z" fill="#FFFCFC"/>
<path d="M8.9068 227.225H0.513672V235.618H8.9068V227.225Z" fill="#FFFCFC"/>
<path d="M59.2656 227.225H50.8725V235.618H59.2656V227.225Z" fill="#FFFCFC"/>
<path d="M92.8381 227.225H84.445V235.618H92.8381V227.225Z" fill="#FFFCFC"/>
<path d="M109.624 227.225H101.231V235.618H109.624V227.225Z" fill="#FFFCFC"/>
<path d="M118.018 227.225H109.624V235.618H118.018V227.225Z" fill="#FFFCFC"/>
<path d="M134.804 227.225H126.411V235.618H134.804V227.225Z" fill="#FFFCFC"/>
<path d="M151.59 227.225H143.197V235.618H151.59V227.225Z" fill="#FFFCFC"/>
<path d="M176.769 227.225H168.376V235.618H176.769V227.225Z" fill="#FFFCFC"/>
<path d="M185.163 227.225H176.769V235.618H185.163V227.225Z" fill="#FFFCFC"/>
<path d="M201.949 227.225H193.556V235.618H201.949V227.225Z" fill="#FFFCFC"/>
<path d="M210.342 227.225H201.949V235.618H210.342V227.225Z" fill="#FFFCFC"/>
<path d="M243.914 227.225H235.521V235.618H243.914V227.225Z" fill="#FFFCFC"/>
<path d="M252.308 227.225H243.914V235.618H252.308V227.225Z" fill="#FFFCFC"/>
<path d="M260.701 227.225H252.308V235.618H260.701V227.225Z" fill="#FFFCFC"/>
<path d="M269.094 227.225H260.701V235.618H269.094V227.225Z" fill="#FFFCFC"/>
<path d="M8.9068 235.618H0.513672V244.012H8.9068V235.618Z" fill="#FFFCFC"/>
<path d="M25.6931 235.618H17.2999V244.012H25.6931V235.618Z" fill="#FFFCFC"/>
<path d="M34.0862 235.618H25.6931V244.012H34.0862V235.618Z" fill="#FFFCFC"/>
<path d="M42.4793 235.618H34.0862V244.012H42.4793V235.618Z" fill="#FFFCFC"/>
<path d="M59.2656 235.618H50.8725V244.012H59.2656V235.618Z" fill="#FFFCFC"/>
<path d="M92.8381 235.618H84.445V244.012H92.8381V235.618Z" fill="#FFFCFC"/>
<path d="M101.231 235.618H92.8381V244.012H101.231V235.618Z" fill="#FFFCFC"/>
<path d="M126.411 235.618H118.018V244.012H126.411V235.618Z" fill="#FFFCFC"/>
<path d="M134.804 235.618H126.411V244.012H134.804V235.618Z" fill="#FFFCFC"/>
<path d="M151.59 235.618H143.197V244.012H151.59V235.618Z" fill="#FFFCFC"/>
<path d="M193.556 235.618H185.163V244.012H193.556V235.618Z" fill="#FFFCFC"/>
<path d="M201.949 235.618H193.556V244.012H201.949V235.618Z" fill="#FFFCFC"/>
<path d="M210.342 235.618H201.949V244.012H210.342V235.618Z" fill="#FFFCFC"/>
<path d="M218.735 235.618H210.342V244.012H218.735V235.618Z" fill="#FFFCFC"/>
<path d="M227.128 235.618H218.735V244.012H227.128V235.618Z" fill="#FFFCFC"/>
<path d="M235.521 235.618H227.128V244.012H235.521V235.618Z" fill="#FFFCFC"/>
<path d="M243.914 235.618H235.521V244.012H243.914V235.618Z" fill="#FFFCFC"/>
<path d="M269.094 235.618H260.701V244.012H269.094V235.618Z" fill="#FFFCFC"/>
<path d="M277.487 235.618H269.094V244.012H277.487V235.618Z" fill="#FFFCFC"/>
<path d="M8.9068 244.012H0.513672V252.405H8.9068V244.012Z" fill="#FFFCFC"/>
<path d="M25.6931 244.012H17.2999V252.405H25.6931V244.012Z" fill="#FFFCFC"/>
<path d="M34.0862 244.012H25.6931V252.405H34.0862V244.012Z" fill="#FFFCFC"/>
<path d="M42.4793 244.012H34.0862V252.405H42.4793V244.012Z" fill="#FFFCFC"/>
<path d="M59.2656 244.012H50.8725V252.405H59.2656V244.012Z" fill="#FFFCFC"/>
<path d="M76.0518 244.012H67.6587V252.405H76.0518V244.012Z" fill="#FFFCFC"/>
<path d="M92.8381 244.012H84.445V252.405H92.8381V244.012Z" fill="#FFFCFC"/>
<path d="M109.624 244.012H101.231V252.405H109.624V244.012Z" fill="#FFFCFC"/>
<path d="M118.018 244.012H109.624V252.405H118.018V244.012Z" fill="#FFFCFC"/>
<path d="M151.59 244.012H143.197V252.405H151.59V244.012Z" fill="#FFFCFC"/>
<path d="M159.983 244.012H151.59V252.405H159.983V244.012Z" fill="#FFFCFC"/>
<path d="M168.376 244.012H159.983V252.405H168.376V244.012Z" fill="#FFFCFC"/>
<path d="M176.769 244.012H168.376V252.405H176.769V244.012Z" fill="#FFFCFC"/>
<path d="M185.163 244.012H176.769V252.405H185.163V244.012Z" fill="#FFFCFC"/>
<path d="M193.556 244.012H185.163V252.405H193.556V244.012Z" fill="#FFFCFC"/>
<path d="M210.342 244.012H201.949V252.405H210.342V244.012Z" fill="#FFFCFC"/>
<path d="M218.735 244.012H210.342V252.405H218.735V244.012Z" fill="#FFFCFC"/>
<path d="M227.128 244.012H218.735V252.405H227.128V244.012Z" fill="#FFFCFC"/>
<path d="M8.9068 252.405H0.513672V260.798H8.9068V252.405Z" fill="#FFFCFC"/>
<path d="M25.6931 252.405H17.2999V260.798H25.6931V252.405Z" fill="#FFFCFC"/>
<path d="M34.0862 252.405H25.6931V260.798H34.0862V252.405Z" fill="#FFFCFC"/>
<path d="M42.4793 252.405H34.0862V260.798H42.4793V252.405Z" fill="#FFFCFC"/>
<path d="M59.2656 252.405H50.8725V260.798H59.2656V252.405Z" fill="#FFFCFC"/>
<path d="M118.018 252.405H109.624V260.798H118.018V252.405Z" fill="#FFFCFC"/>
<path d="M134.804 252.405H126.411V260.798H134.804V252.405Z" fill="#FFFCFC"/>
<path d="M143.197 252.405H134.804V260.798H143.197V252.405Z" fill="#FFFCFC"/>
<path d="M176.769 252.405H168.376V260.798H176.769V252.405Z" fill="#FFFCFC"/>
<path d="M185.163 252.405H176.769V260.798H185.163V252.405Z" fill="#FFFCFC"/>
<path d="M235.521 252.405H227.128V260.798H235.521V252.405Z" fill="#FFFCFC"/>
<path d="M243.914 252.405H235.521V260.798H243.914V252.405Z" fill="#FFFCFC"/>
<path d="M252.308 252.405H243.914V260.798H252.308V252.405Z" fill="#FFFCFC"/>
<path d="M260.701 252.405H252.308V260.798H260.701V252.405Z" fill="#FFFCFC"/>
<path d="M277.487 252.405H269.094V260.798H277.487V252.405Z" fill="#FFFCFC"/>
<path d="M8.9068 260.798H0.513672V269.191H8.9068V260.798Z" fill="#FFFCFC"/>
<path d="M59.2656 260.798H50.8725V269.191H59.2656V260.798Z" fill="#FFFCFC"/>
<path d="M76.0518 260.798H67.6587V269.191H76.0518V260.798Z" fill="#FFFCFC"/>
<path d="M84.445 260.798H76.0518V269.191H84.445V260.798Z" fill="#FFFCFC"/>
<path d="M101.231 260.798H92.8381V269.191H101.231V260.798Z" fill="#FFFCFC"/>
<path d="M118.018 260.798H109.624V269.191H118.018V260.798Z" fill="#FFFCFC"/>
<path d="M168.376 260.798H159.983V269.191H168.376V260.798Z" fill="#FFFCFC"/>
<path d="M185.163 260.798H176.769V269.191H185.163V260.798Z" fill="#FFFCFC"/>
<path d="M201.949 260.798H193.556V269.191H201.949V260.798Z" fill="#FFFCFC"/>
<path d="M218.735 260.798H210.342V269.191H218.735V260.798Z" fill="#FFFCFC"/>
<path d="M227.128 260.798H218.735V269.191H227.128V260.798Z" fill="#FFFCFC"/>
<path d="M235.521 260.798H227.128V269.191H235.521V260.798Z" fill="#FFFCFC"/>
<path d="M243.914 260.798H235.521V269.191H243.914V260.798Z" fill="#FFFCFC"/>
<path d="M252.308 260.798H243.914V269.191H252.308V260.798Z" fill="#FFFCFC"/>
<path d="M8.9068 269.191H0.513672V277.584H8.9068V269.191Z" fill="#FFFCFC"/>
<path d="M17.2999 269.191H8.9068V277.584H17.2999V269.191Z" fill="#FFFCFC"/>
<path d="M25.6931 269.191H17.2999V277.584H25.6931V269.191Z" fill="#FFFCFC"/>
<path d="M34.0862 269.191H25.6931V277.584H34.0862V269.191Z" fill="#FFFCFC"/>
<path d="M42.4793 269.191H34.0862V277.584H42.4793V269.191Z" fill="#FFFCFC"/>
<path d="M50.8725 269.191H42.4793V277.584H50.8725V269.191Z" fill="#FFFCFC"/>
<path d="M59.2656 269.191H50.8725V277.584H59.2656V269.191Z" fill="#FFFCFC"/>
<path d="M76.0518 269.191H67.6587V277.584H76.0518V269.191Z" fill="#FFFCFC"/>
<path d="M84.445 269.191H76.0518V277.584H84.445V269.191Z" fill="#FFFCFC"/>
<path d="M92.8381 269.191H84.445V277.584H92.8381V269.191Z" fill="#FFFCFC"/>
<path d="M109.624 269.191H101.231V277.584H109.624V269.191Z" fill="#FFFCFC"/>
<path d="M143.197 269.191H134.804V277.584H143.197V269.191Z" fill="#FFFCFC"/>
<path d="M151.59 269.191H143.197V277.584H151.59V269.191Z" fill="#FFFCFC"/>
<path d="M168.376 269.191H159.983V277.584H168.376V269.191Z" fill="#FFFCFC"/>
<path d="M185.163 269.191H176.769V277.584H185.163V269.191Z" fill="#FFFCFC"/>
<path d="M193.556 269.191H185.163V277.584H193.556V269.191Z" fill="#FFFCFC"/>
<path d="M201.949 269.191H193.556V277.584H201.949V269.191Z" fill="#FFFCFC"/>
<path d="M210.342 269.191H201.949V277.584H210.342V269.191Z" fill="#FFFCFC"/>
<path d="M243.914 269.191H235.521V277.584H243.914V269.191Z" fill="#FFFCFC"/>
<path d="M252.308 269.191H243.914V277.584H252.308V269.191Z" fill="#FFFCFC"/>
<path d="M269.094 269.191H260.701V277.584H269.094V269.191Z" fill="#FFFCFC"/>
</svg>
